<?xml version="1.0" encoding="UTF-8"?>
<svg version="1.1" viewBox="0 0 2048 941" width="1280" height="1280" xmlns="http://www.w3.org/2000/svg">
<path transform="translate(432,359)" d="m0 0 5 3 5-1 4-2 6 5 3-3h6l2 3 4-1 3-2 4 6 4-1 4-6 3-1 4 4 2 5h2l4-6 8 2 4-4 4 1 4 2 7-4 5 5 6-4 5 1v4l9-3 5 6v2l4-2h4l2 4v4h7l1 2 1 9 4-3 10 1 3-3 5 2 3 2 2-6h4l3 5 4-1 5-4 3 7h2l2-3h5l2 2 2 5 4-3 4 1 1 5v2l5-1 3-1 3 2-1 7-1 2 6-3h5l1 4-2 5 1 3 1-1h6l1 4-4 6 8 2v5l-4 4v3l6 2-2 4-4 4 1 4 2 5-6 4v8l-3 2h-3l7 7v5l-2 1-2-1-9 1-11 9-7 3v10l-7 2-7 4-7 5h-6l-14-7-7-2-12-2-13-3-23-2-22-1h-71l-34 2-17 3-26 6-11 6-4 2-12-10-3-1-16-1-3-2-1-4 1-2 5 1 4 3 4-1-1-5-3-3-7-2-10-9h-11l-1-3 3-5 4-4-4-1-1-1-1-9-6-3 2-5 2-4-4-2-3-3 2-4 4-1-2-5-3-3 1-4 8-1-3-5-1-5 5-1 3 1v-10l1-2 5 1h3l2-10 7 3 1-5 1-3 7 1 4 2 2-7 5 1 3 2 7-6h2l2 4 3 1 1-6 5 1 4 4h2l2-4h4l1 6 5-3 2-1 6 5 1-9 7-4 3-6h11l2-8 4 2 5 1zm4 13-13 3-10 6-7 8-5 10-2 8v6l2 2 8-1 17-4 15-2 34-2 1-2 1-14v-14l-4-2-15-2zm71 0-16 3-1 1 1 15 2 13 1 2 34 2 20 3 14 4h5l1-2v-9l-4-13-4-6-7-6-10-5-13-2zm-147 21-16 4-10 5-9 7-6 8-2 5v14l3 10 4 6-2 5-6 8v6l5 1 5-6h4l4 10 1 8h3l8-8 4-1 1 8h9v4l-6 8-5 3v5l5 5 6 1 6-5 2-12h6l2 7 5 3 10-2 6-4 3-4-1-5-1-1-7 1-5 2-1-4-9-4v-5l7-6 1-4 10-1-1-4-6-9 6-2 3-5-6-8-5-8h-7l-24 11-11 6-5 2-2-1 1-4 7-5 5-2v-2l6-2 20-8 9-4 1-3 1-17 3-4v-2l-2-1zm221 0-1 3 1 6 1 5 2 3-1 9 3 3 16 5 17 8 14 9v4l-9-3-14-7-17-8-6-2h-6l-2 10-8 7 5 5 5 2-3 6v2l-4 2 1 3 9 1 4 6 5 3v6l-12 5-3 1-7-1-4 4 3 5 9 6 6 1 7-3 3-6h6l1 5-1 5 4 4 4 2 6-1 5-5v-5l-6-3-3-6-3-4v-2h9l2-8 5 3 5 5h4l4-12 2-4 4-1 3 6 4 1 3-2-1-7-6-7v-7l4-8 2-9v-7l-4-11-8-9-14-8-13-4-8-1zm-115 20-32 4-26 3-4 2 1 7 4 6-7 7-1 3 2 2 8 1-1 7-2 5 5 1 8-4v6l7 2 4 2-2 5-6 4v6l-2-1h-7l-4 4 2 6 3 2 9 1 7-2 4-4v-9h8l3 8 5 3 4 1h11l9-4 2-3v-6l-5-4-6 1-4 3-3-1-4-7-7-1-1-4 5-5 5-6 1-5h2l2 4 5 4 3 1 5-3-1-7-5-6 1-6 7-4 1-7-7-1v-7l-2-4zm32 1-3 1 1 8-6 2v6l8 6-1 7-5 6v5l7 3 9-7 3 4 4 5 5 3 1 5-1 1-8 1-3 3-3 5-3-1-1-2-7-1-4 2-1 7 4 5 7 3h12l7-3 2-3 2-6 7-1v9l4 4 5 2h10l6-3 2-2-1-5-4-2-7 1-3-7-6-4-1-3 1-2 11-2 3-7 5 4h3l-1-13 8-1 1-4-8-7 7-14-7-2-41-5zm-15 42-5 3-2 5 1 6 4 4h6l5-5 2-4-6-8zm-81 11-5 3-2 4 1 5 4 4h6l4-4 1-6-4-5zm161 0-4 3-1 7 3 5 2 1h6l3-4v-7l-5-5z" fill="#FDFDFD"/>
<path transform="translate(438,506)" d="m0 0h84l31 2 27 4 17 4 10 4 1 2v8l-3 10-6 8-6-1-13-4-27-4-13-1h-115l-33 4-14 4-7 3-4-1-5-15-1-7-1-4 6-4 20-6 23-4zm41 5-8 4-2 3 1 5 3 3 7 3h9l8-4 2-3-1-6-6-4-3-1zm-34 3-4 5-1 3 6 7 6-1 3-5-1-5-4-4zm73 0-4 4-1 6 5 5 6-2 3-4-1-6-3-3zm-106 1-10 3-5 6 2 6 5 3h11l8-4 4-4v-5l-4-4-4-1zm138 0-7 3-3 5 4 5 10 5h11l5-3 2-6-4-5-7-3zm-171 8-5 3-1 5 4 4 5 1 3-2v-8l-1-2zm209 0-4 3v7l3 3 7-2 1-1v-6l-2-3z" fill="#FDFDFD"/>
<path transform="translate(1170,343)" d="m0 0h20l4 5 3 9 3 5 5 12 15 34 7 16h3l11-25 19-40 8-16h16l1 1v104h-16l-1-2v-41l2-38-5 3-8 19-13 28-9 18 1 7 1 4-3 3h-9l-5-4-12-26-17-39-8-20-3-3v39l1 31v19l-3 3-5 1-3-3-1-8v-33z" fill="#FDFDFD"/>
<path transform="translate(427,545)" d="m0 0h92l40 2 27 4 10 3 3 3-2 4-9 4-16 2-11 2-26 2-21 1h-63l-34-2-35-5-10-4-2-4 3-3 9-3z" fill="#FDFDFD"/>
<path transform="translate(1360,339)" d="m0 0h19l13 4 9 5 12 11 6 8 6 13 2 11v10l-3 13-8 15-11 12-14 8-9 3-5 1h-14l-12-3-13-7-12-11-6-9-5-12-2-10v-14l6-18 8-10 9-9 10-6 10-4zm-3 9-11 7-8 9-5 10-3 11-1 13 2 14 4 11 7 9 9 8 8 4 3 1h15l9-4 9-6 8-11 5-11 1-5v-22l-2-10-6-12-9-10-8-5-4-1z" fill="#FDFDFD"/>
<path transform="translate(1684,338)" d="m0 0 14 1 16 6 9 6 11 11 6 10 5 16 1 9-3 15-4 9-6 10-12 12-16 8-5 1h-25l-13-5-8-6-13-13-7-14-2-10v-20l4-11 6-11 10-10 10-7 16-6zm1 9-12 2-10 7-7 8-6 13-2 8-1 12 2 14 4 11 6 9 9 8 12 6 10 1 9-2 11-6 7-7 7-12 3-9v-28l-5-14-9-11-9-7-5-2z" fill="#FDFDFD"/>
<path transform="translate(1180,484)" d="m0 0h13l14 4 10 5 11 9 8 10 5 11 4 15v8l-5 16-6 12-9 10-11 8-8 4-9 2h-20l-9-2-12-7-13-12-6-8-5-12-1-8v-15l2-11 7-13 9-10 10-8 11-5zm-1 9-10 4-8 6-7 10-5 12-3 11v13l6 18 6 9 9 9 9 5 4 1h12l12-4 11-8 8-14 3-7 1-5v-21l-2-9-7-14-6-7-9-6-8-3z" fill="#FDFDFD"/>
<path transform="translate(1267,487)" d="m0 0 16 1 5 3 10 13 12 14 13 15 11 14 13 15 5 3v-11l-1-18v-45l3-4h6l2 5v92l-2 11-3 1-8-9-8-10-9-10-9-11-12-13-11-14-10-12-5-7-2-1-1 70-1 15-2 3-5-1-1-1-1-9v-87l-8-8v-3z" fill="#FDFDFD"/>
<path transform="translate(744,487)" d="m0 0h8l9 2 7 6 9 11 24 28 9 11 13 16 4 4 3 1-2-32v-43l1-3 2-1h6l2 3v83l-1 21-4 1-5-5-11-13-13-15-12-14-13-15-18-22-3-2v82l-3 5-4 1-2-6-2-94-6-5v-4z" fill="#FDFDFD"/>
<path transform="translate(1539,341)" d="m0 0 7 1v72l-1 34-2 2-7-6-7-9-11-13-10-11-9-11-9-10-13-17-7-8-3-1 1 37v46l-6 3h-3l-2-8v-88l-7-8 1-4h12l7 1 8 9 9 11 9 10 9 11 12 14 11 14 5 7h3v-59l1-18z" fill="#FDFDFD"/>
<path transform="translate(1018,342)" d="m0 0h38l10 3 8 7 6 10 1 3v10l-4 9-7 8-8 5-6 1 4 8 11 15 9 13 8 11-1 4-6 1-9-3-9-10-14-22-11-13-5-4h-3l-2 9v40l-6 2h-8l-1-33v-73zm13 6-3 5v38l2 1h23l7-4 6-9 2-7-1-9-6-9-6-4-10-2z" fill="#FDFDFD"/>
<path transform="translate(743,342)" d="m0 0h51l10 5 6 5 5 8 2 6v11l-6 12-5 6-9 5-9 2-24 1v45l-6 1h-8l-1-33v-65l-4-2-3-3zm24 6-2 3-1 6v36l2 3h14l13-4 6-5 4-7 1-4v-7l-3-9-5-7-8-4-8-1z" fill="#FDFDFD"/>
<path transform="translate(864,338)" d="m0 0 4 2 4 6 3 8 4 11 4 9 7 15 5 14 13 29 6 12-1 4-1 1h-9l-6-2-5-12-9-21-2-3h-25l-13 1-4 9-9 20-5 8-5 1-2-1v-6l12-25 17-41 9-20 6-15zm-4 27-2 3-2 9-10 23 1 3 3 1h25l3-1-1-7-7-16-3-10-6-5z" fill="#FDFDFD"/>
<path transform="translate(1432,485)" d="m0 0 4 2 8 20 12 27 5 14 3 5 5 13 9 20 1 9-9 1-5-2-7-14-9-23h-35l-5 1-7 16-5 12-4 9-6 2-2-2 1-9 11-24 13-31 13-29 5-14zm-4 25-10 23-5 13 2 4 29 1 1-5-7-17-6-16-1-3z" fill="#FDFDFD"/>
<path transform="translate(905,485)" d="m0 0 5 2 3 5 6 16 8 19 4 8 5 14 13 29 6 12-1 4-4 2-8-1-6-5-3-9-3-8-6-15v-2l-37 1-4 1-8 20-8 17-2 2-4-1-2-2 1-6 13-29 12-29 8-18 6-14 4-10zm-4 26-10 26-4 8 1 4 2 1h29l1-4-6-13-6-17-5-5z" fill="#FDFDFD"/>
<path transform="translate(1016,484)" d="m0 0h14l14 4 12 6 7 5-1 6-5 1-13-8-7-3-5-1h-16l-11 4-8 6-7 11-5 13-2 8v12l5 16 6 11 5 6 11 7 6 2h14l12-3 9-6 4-3h5l1 1v5l-7 7-10 5-9 2h-21l-12-3-10-6-10-9-8-10-6-14-1-17 1-12 6-14 8-10 10-9 14-7z" fill="#FDFDFD"/>
<path transform="translate(917,342)" d="m0 0h64l11 1 3 3-4 4-6 1h-24v64l-1 33-15 1-1-41v-59l-4 1-24 1-5-5 1-3z" fill="#FDFDFD"/>
<path transform="translate(1503,488)" d="m0 0h15l1 66v33h40l2 2-1 5-4 2h-20l-28-1-4-1-1-8z" fill="#FDFDFD"/>
<path transform="translate(1086,488)" d="m0 0h11l6 1v86l-1 16-2 4-3 1h-7l-3-3-1-6z" fill="#FDFDFD"/>
<path transform="translate(1582,343)" d="m0 0h17v105h-16l-1-1z" fill="#FDFDFD"/>
<path transform="translate(1118,342)" d="m0 0 16 1 1 1v103l-1 1h-15l-1-1z" fill="#FDFDFD"/>
<path transform="translate(482,297)" d="m0 0 4 1 3 8 8 5-2 4-7 3 1 9 7 8 3 4-1 3h-7l-4-5-3-6-2 2-3 8-1 1h-6l-1-5 8-10 1-5-1-6h-5l-2-5 1-2 5-1z" fill="#FDFDFD"/>
<path transform="translate(473,347)" d="m0 0h22l3 1-2 5-6 4h-11l-5-3-2-2z" fill="#FDFDFD"/>
<path transform="translate(647,497)" d="m0 0 2 1-1 5-5 4-4-1 2-5z" fill="#FDFDFD"/>
</svg>
